<svg width="123" height="123" viewBox="0 0 123 123" fill="none" xmlns="http://www.w3.org/2000/svg">
<g clip-path="url(#clip0_241_2270)">
<path fill-rule="evenodd" clip-rule="evenodd" d="M0.530457 61.8381C0.530457 28.0138 27.8742 0.665894 61.6285 0.665894C95.3829 0.665894 122.731 28.0138 122.731 61.8381C122.731 95.5306 95.3828 122.862 61.6285 122.862C27.8742 122.862 0.530457 95.5306 0.530457 61.8381Z" fill="white"/>
<path fill-rule="evenodd" clip-rule="evenodd" d="M19.4862 88.1974V35.6852H28.0144L37.5932 61.1297V35.6852H46.5498V87.9172H38.8662L29.3492 60.4994V88.1974H19.4862Z" fill="#5E6971"/>
<path fill-rule="evenodd" clip-rule="evenodd" d="M63.388 88.8237C54.3655 88.8237 49.4381 82.5614 49.8583 72.5501H59.227C59.227 77.4857 59.3712 81.0041 63.5281 81.0041C65.6416 81.0041 66.7004 78.8205 66.7004 75.3722C66.7004 65.9253 50.7729 64.8665 50.7729 49.2933C50.7729 41.1153 54.5097 35.3392 63.8124 35.3392C71.496 35.3392 75.7189 38.8576 75.929 51.2584H67.475C67.475 46.1209 66.5604 42.8786 63.7424 42.8786C61.2045 42.8786 59.4453 44.9262 60.0015 48.5228C61.4847 57.8915 76.3575 60.005 76.6376 74.4535C76.9219 86.9285 67.475 88.8237 63.388 88.8237Z" fill="#5E6971"/>
<path fill-rule="evenodd" clip-rule="evenodd" d="M80.5144 87.9173V35.6976H102.218V43.7314H90.8718V57.1087H98.9757V66.1436H90.8718V87.9173H80.5144Z" fill="#5E6971"/>
<path fill-rule="evenodd" clip-rule="evenodd" d="M99.4698 88.4033C101.649 88.4033 103.487 86.7142 103.487 84.3823C103.487 82.0669 101.649 80.2954 99.4698 80.2954C97.2863 80.2954 95.3788 82.0669 95.3788 84.3823C95.3788 86.7142 97.2863 88.4033 99.4698 88.4033ZM96.1574 84.3823C96.1574 82.4171 97.6406 81.004 99.4698 81.004C101.299 81.004 102.782 82.4171 102.782 84.3823C102.782 86.2898 101.299 87.7029 99.4698 87.7029C97.6406 87.7029 96.1574 86.2898 96.1574 84.3823ZM98.6253 84.6707H99.4698L100.673 86.7142H101.443L100.1 84.6707C100.809 84.5306 101.373 84.1763 101.373 83.3359C101.373 82.4171 100.809 82.0669 99.68 82.0669H97.9166V86.7142H98.6253V84.6707ZM99.4698 87.8389V86.3558H100.454C100.945 86.3558 101.443 86.5 101.443 87.0685C101.443 87.7689 100.879 87.8389 100.314 87.8389H99.4698Z" fill="#5E6971"/>
</g>
<defs>
<clipPath id="clip0_241_2270">
<rect width="122.2" height="122.196" fill="white" transform="translate(0.530823 0.666046)"/>
</clipPath>
</defs>
</svg>
